<svg width="64" height="64" viewBox="0 0 64 64" fill="none" xmlns="http://www.w3.org/2000/svg">
  <defs>
    <linearGradient id="steinz-bg-bw" x1="0" y1="0" x2="64" y2="64" gradientUnits="userSpaceOnUse">
      <stop offset="0%" stop-color="#1A1A2E" />
      <stop offset="100%" stop-color="#0A0A14" />
    </linearGradient>
    <linearGradient id="steinz-s-bw" x1="18" y1="14" x2="46" y2="50" gradientUnits="userSpaceOnUse">
      <stop offset="0%" stop-color="#FFFFFF" />
      <stop offset="50%" stop-color="#E0E0E0" />
      <stop offset="100%" stop-color="#FFFFFF" />
    </linearGradient>
    <filter id="steinz-glow-bw">
      <feGaussianBlur stdDeviation="1.5" result="glow" />
      <feMerge>
        <feMergeNode in="glow" />
        <feMergeNode in="SourceGraphic" />
      </feMerge>
    </filter>
  </defs>
  <rect width="64" height="64" rx="14" fill="url(#steinz-bg-bw)" />
  <rect x="1" y="1" width="62" height="62" rx="13" fill="none" stroke="white" stroke-opacity="0.08" stroke-width="1" />
  <g filter="url(#steinz-glow-bw)">
    <path d="M 38 16 C 38 16 44 18 44 24 C 44 30 36 30 36 30 L 28 30 C 28 30 20 30 20 36 C 20 42 28 44 28 44" stroke="url(#steinz-s-bw)" stroke-width="4" stroke-linecap="round" fill="none" />
    <line x1="22" y1="18" x2="36" y2="18" stroke="url(#steinz-s-bw)" stroke-width="4" stroke-linecap="round" />
    <line x1="28" y1="46" x2="42" y2="46" stroke="url(#steinz-s-bw)" stroke-width="4" stroke-linecap="round" />
    <circle cx="18" cy="18" r="2" fill="white" opacity="0.4" />
    <circle cx="46" cy="46" r="2" fill="white" opacity="0.4" />
  </g>
</svg>
